<svg width="74" height="74" viewBox="0 0 74 74" fill="none" xmlns="http://www.w3.org/2000/svg">
<g clip-path="url(#clip0_106_334)">
<path d="M74 37C74 51.0942 66.121 63.3462 54.5271 69.5919C49.3116 72.4043 43.3425 74 37.0012 74C30.6598 74 24.6884 72.4043 19.4706 69.5919C7.87897 63.3438 0 51.0919 0 37C0 16.567 16.5652 0 37.0012 0C57.4372 0 74 16.567 74 37Z" fill="#FEB173"/>
<path d="M54.5271 69.5919C49.3117 72.4042 43.3425 74 37.0012 74V56.791H41.7374V65.5118C45.0477 66.2422 48.2835 67.1192 51.389 68.266C52.0659 68.4823 52.8103 68.7661 53.5989 69.1313C53.6082 69.136 53.6199 69.1406 53.6315 69.1453C53.9246 69.2849 54.2224 69.4314 54.5271 69.5919Z" fill="#08BED0"/>
<path d="M37.0012 56.791V74C30.6599 74 24.6885 72.4042 19.4707 69.5919C19.7754 69.4314 20.0755 69.2849 20.3686 69.1476C20.3803 69.1406 20.3919 69.136 20.4012 69.1313C21.1898 68.7661 21.9342 68.4823 22.6111 68.266C25.7167 67.1192 28.9525 66.2422 32.2627 65.5118V56.791H37.0012Z" fill="#0691AE"/>
<path d="M36.9988 10.6794C25.5095 11.0609 16.3162 20.2167 16.3162 31.4591C16.3162 42.7015 25.1605 62.3785 36.9988 62.3785V10.6794Z" fill="#0691AE"/>
<path d="M36.9988 10.6794C48.4881 11.0609 57.6814 20.2167 57.6814 31.4591C57.6814 42.7015 48.837 62.3785 36.9988 62.3785V10.6794Z" fill="#08BED0"/>
<path d="M38.7644 43.3621C53.0661 47.7213 55.176 34.6181 55.176 34.6181C55.176 34.6181 43.1238 29.0585 38.7644 43.3621Z" fill="#024C74"/>
<path d="M18.824 34.618C18.824 34.618 20.9315 47.7213 35.2356 43.3621C30.8762 29.0608 18.824 34.618 18.824 34.618Z" fill="#024C74"/>
<path d="M36.2824 48.8843C36.2824 49.3566 35.8986 49.7404 35.4264 49.7404C34.9541 49.7404 34.5703 49.3566 34.5703 48.8843C34.5703 48.4121 34.9541 48.0283 35.4264 48.0283C35.8986 48.0283 36.2824 48.4121 36.2824 48.8843Z" fill="#024C74"/>
<path d="M38.5738 49.7404C39.0466 49.7404 39.4299 49.3571 39.4299 48.8843C39.4299 48.4116 39.0466 48.0283 38.5738 48.0283C38.101 48.0283 37.7178 48.4116 37.7178 48.8843C37.7178 49.3571 38.101 49.7404 38.5738 49.7404Z" fill="#024C74"/>
</g>
<defs>
<clipPath id="clip0_106_334">
<rect width="74" height="74" fill="white"/>
</clipPath>
</defs>
</svg>
