<svg width="74" height="74" viewBox="0 0 74 74" fill="none" xmlns="http://www.w3.org/2000/svg">
<g clip-path="url(#clip0_108_432)">
<path d="M74 37C74 43.9925 72.0599 50.5313 68.6869 56.1095C65.814 60.8711 61.8943 64.928 57.2488 67.9729C56.9673 68.1567 56.6811 68.3381 56.395 68.5149C55.7855 68.8917 55.1621 69.25 54.5271 69.5919C53.0359 70.3968 51.4843 71.1016 49.8769 71.6971H49.8746C46.5434 72.9346 42.9843 73.7069 39.2762 73.9302C38.6481 73.9698 38.0131 73.9907 37.3734 73.9977C37.2501 73.9977 37.1245 73.9977 37.0012 73.9977H36.9663C36.829 73.9977 36.6941 73.9977 36.5592 73.9977C35.9427 73.9907 35.3333 73.9674 34.7261 73.9302C31.0041 73.7046 27.431 72.93 24.0859 71.6831C22.4924 71.09 20.9501 70.3898 19.4706 69.5919C18.8402 69.2523 18.2191 68.8941 17.612 68.5196C17.3072 68.3311 17.0071 68.1404 16.7071 67.945C12.0825 64.9047 8.17673 60.8548 5.3108 56.1095C1.94008 50.5313 0 43.9925 0 37C0 16.567 16.5652 0 37.0012 0C57.4372 0 74 16.567 74 37Z" fill="#CAFBDA"/>
<path d="M57.2487 67.9729C56.9672 68.1567 56.6811 68.3381 56.3949 68.5149C55.7854 68.8917 55.162 69.25 54.527 69.5919C53.0358 70.3968 51.4842 71.1016 49.8768 71.6971H49.8745C46.5433 72.9346 42.9842 73.7069 39.2761 73.9302C38.648 73.9698 38.013 73.9907 37.3733 73.9977C37.25 73.9977 37.1244 73.9977 37.0011 73.9977H36.9662C36.8289 73.9977 36.694 73.9977 36.5591 73.9977L36.9569 59.615H42.6794V61.4829C42.6794 61.4829 52.6334 62.7832 57.2487 67.9729Z" fill="#04BF8A"/>
<path d="M40.4672 64.3418L42.6817 61.4829V59.615H37.4268L40.4672 64.3418Z" fill="#ECEBEE"/>
<path d="M36.9663 74.0001C36.829 74.0001 36.6941 74.0001 36.5592 74.0001C35.9427 73.9931 35.3332 73.9699 34.7261 73.9327C31.0041 73.707 27.431 72.9324 24.0859 71.6856C22.4924 71.0924 20.9501 70.3922 19.4706 69.5944C18.8402 69.2547 18.2191 68.8965 17.6119 68.522C17.3072 68.3336 17.0071 68.1428 16.707 67.9474C21.3339 62.781 31.2507 61.4853 31.2507 61.4853V59.6174H36.9756L37.3733 74.0001C37.2501 74.0001 37.1244 74.0001 37.0011 74.0001H36.9663Z" fill="#02A486"/>
<path d="M33.4653 64.3418L31.2507 61.4829V59.615H36.5034L33.4653 64.3418Z" fill="#ECEBEE"/>
<path d="M16.0581 36.0138C16.4698 40.7336 19.4544 41.0174 19.4544 41.0174L19.4986 31.5685C19.4986 31.5685 15.6417 31.2917 16.0581 36.0138Z" fill="#FDDCAB"/>
<path d="M37.0035 12.3079C27.2589 12.3079 19.3613 20.2075 19.3613 29.9495V40.6033C19.3613 50.3477 27.2612 58.245 37.0035 58.245V12.3079Z" fill="#FDDCAB"/>
<path d="M57.8675 35.8717C57.4558 40.5915 54.4712 40.8753 54.4712 40.8753L54.427 31.4264C54.427 31.4264 58.2839 31.1496 57.8675 35.8717Z" fill="#FFEAD5"/>
<path d="M37.0034 12.3079V58.2473C46.748 58.2473 54.6456 50.3477 54.6456 40.6057V29.9518C54.6456 20.2075 46.7457 12.3102 37.0034 12.3102V12.3079Z" fill="#FFEAD5"/>
<path d="M19.9987 38.5864L19.2776 39.5564C20.4058 62.2831 37.0082 60.6664 37.0082 60.6664V50.9128C21.1665 53.9926 19.9987 38.5864 19.9987 38.5864Z" fill="#FDB022"/>
<path d="M37.0081 50.9128V60.6664C37.0081 60.6664 53.8617 62.2831 54.9899 39.5564L54.2688 38.5864C54.2688 38.5864 52.8497 53.9949 37.0081 50.9128Z" fill="#FEC84B"/>
<path d="M34.2098 41.7755C31.0694 41.7011 29.8388 44.7065 28.3035 42.4408C28.3035 42.4408 29.776 49.8124 36.999 45.6765C36.999 45.6765 37.3502 41.85 34.2121 41.7755H34.2098Z" fill="#FDB022"/>
<path d="M39.809 41.7755C42.9494 41.7011 44.18 44.7065 45.7153 42.4408C45.7153 42.4408 44.2428 49.8124 37.0198 45.6765C37.0198 45.6765 36.6685 41.85 39.8066 41.7755H39.809Z" fill="#FEC84B"/>
<path d="M37.0035 10.1143H36.9989C35.0472 10.1538 33.1652 10.305 31.4392 10.6237C13.5318 14.9364 19.4102 31.5662 19.4102 31.5662L22.0644 27.6536C20.1429 23.6339 29.5526 18.9886 37.0012 22.3778C37.0059 22.3778 37.0082 22.3755 37.0128 22.3732V10.1143H37.0012H37.0035Z" fill="#FDB022"/>
<path d="M51.9659 27.6536L54.6201 31.5662C54.6201 31.5662 60.4962 14.9364 42.5911 10.6237H42.5632C40.8418 10.305 38.9645 10.1538 37.0151 10.1143V22.3708C44.4614 18.9932 53.885 23.6339 51.9636 27.6536H51.9659Z" fill="#FEC84B"/>
</g>
<defs>
<clipPath id="clip0_108_432">
<rect width="74" height="74" fill="white"/>
</clipPath>
</defs>
</svg>
