<svg width="74" height="74" viewBox="0 0 74 74" fill="none" xmlns="http://www.w3.org/2000/svg">
<g clip-path="url(#clip0_108_479)">
<path d="M74 37C74 43.9925 72.0599 50.5313 68.6869 56.1095C66.8166 59.2102 64.502 62.0133 61.8314 64.4302C60.1519 65.9515 58.3328 67.3216 56.395 68.5149C55.7855 68.8917 55.1621 69.25 54.5271 69.5919C53.0359 70.3968 51.4843 71.1016 49.8769 71.6971H49.8746C46.5434 72.9346 42.9843 73.7069 39.2762 73.9302C38.5249 73.9767 37.7665 74 37.0012 74H36.9663C36.2126 74 35.4658 73.9767 34.7261 73.9302C31.0041 73.7046 27.431 72.93 24.0859 71.6831C22.4924 71.09 20.9501 70.3898 19.4706 69.5919C18.8402 69.2523 18.2191 68.8941 17.612 68.5196C15.6719 67.3239 13.8504 65.9538 12.1686 64.4302C9.50036 62.0133 7.18343 59.2102 5.3108 56.1095C1.94008 50.5313 0 43.9925 0 37C0 16.567 16.5652 0 37.0012 0C57.4372 0 74 16.567 74 37Z" fill="#FD853A"/>
<path d="M37.0336 15.169V73.9303H34.726C31.004 73.7047 27.4309 72.9301 24.0858 71.6833C22.4923 71.0901 20.95 70.3899 19.4705 69.592C18.8401 69.2524 18.219 68.8942 17.6119 68.5197C15.6718 67.324 13.8503 65.9539 12.1685 64.4303C12.4988 42.8528 14.8483 28.8097 19.8846 22.2406C29.7199 9.40946 36.6475 15.169 36.6475 15.169H37.0336Z" fill="black"/>
<path d="M61.8315 64.4303C60.1519 65.9516 58.3328 67.3217 56.3951 68.515C55.7856 68.8919 55.1622 69.2501 54.5271 69.592C53.036 70.3969 51.4844 71.1017 49.8769 71.6972H49.8746C46.5434 72.9347 42.9843 73.707 39.2763 73.9303H36.9663V15.169H37.3525C37.3525 15.169 44.28 9.40946 54.1153 22.2406C59.1517 28.8097 61.5012 42.8528 61.8315 64.4303Z" fill="black"/>
<path d="M40.3904 56.491H33.542V63.3299H40.3904V56.491Z" fill="#FDDCAB"/>
<path d="M37.0638 63.3301V73.9304H34.726C31.004 73.7048 27.4309 72.9302 24.0857 71.6833C22.4923 71.0902 20.95 70.39 19.4705 69.5921C18.8401 69.2525 18.219 68.8943 17.6118 68.5198C20.0962 66.7798 23.7554 65.0352 29.0848 63.9884C29.0848 63.9884 29.1104 63.9837 29.1546 63.9744C29.6361 63.8814 30.134 63.793 30.6434 63.7092C31.5623 63.5627 32.5277 63.4348 33.5419 63.3301H37.0638Z" fill="#FDDCAB"/>
<path d="M56.395 68.5151C55.7855 68.8919 55.1621 69.2502 54.527 69.5921C53.0359 70.397 51.4843 71.1018 49.8769 71.6973H49.8746C46.5434 72.9348 42.9842 73.7071 39.2762 73.9304H37.064V63.3301H40.3882C41.4094 63.4348 42.3841 63.565 43.3122 63.7139C43.8473 63.8 44.366 63.893 44.8708 63.993C50.1956 65.0398 53.8803 66.7798 56.395 68.5151Z" fill="#FFEAD5"/>
<path d="M36.9873 71.3228V74.0002H36.9663C36.2126 74.0002 35.4659 73.9769 34.7262 73.9304C31.0042 73.7048 27.4311 72.9302 24.0859 71.6833C25.7701 68.9222 28.4453 64.6001 29.085 63.9884C29.085 63.9884 29.1106 63.9837 29.1548 63.9744C29.3967 63.9232 30.2086 63.7581 30.6436 63.7092C30.6436 63.7092 28.1057 71.025 36.9663 71.3228H36.9873Z" fill="#97F8C0"/>
<path d="M49.8746 71.6973C46.5434 72.9348 42.9843 73.7071 39.2763 73.9304C38.5249 73.9769 37.7665 74.0002 37.0012 74.0002H36.9663V71.3228H36.9872C37.0128 71.3204 37.0384 71.3204 37.064 71.3181C45.706 70.9878 43.3798 63.9163 43.3123 63.7139C43.31 63.7116 43.31 63.7092 43.31 63.7092C43.8264 63.7674 44.8662 63.9884 44.8662 63.9884L44.8709 63.993C45.5176 64.6211 48.1951 68.9408 49.8746 71.6973Z" fill="#CAFBDA"/>
<path d="M16.0578 36.0138C16.4696 40.7336 19.4541 41.0174 19.4541 41.0174L19.4983 31.5685C19.4983 31.5685 15.6414 31.2917 16.0578 36.0138Z" fill="#FDDCAB"/>
<path d="M19.3613 21.0681V40.6033C19.3613 50.3476 27.2612 58.2449 37.0035 58.2449V21.0681H19.3613Z" fill="#FDDCAB"/>
<path d="M57.8673 35.8719C57.4555 40.5917 54.471 40.8755 54.471 40.8755L54.4268 31.4266C54.4268 31.4266 58.2837 31.1498 57.8673 35.8719Z" fill="#FFEAD5"/>
<path d="M37.0034 21.0681V58.2472C46.748 58.2472 54.6456 50.3476 54.6456 40.6056V21.0681H37.0034Z" fill="#FFEAD5"/>
<path d="M55.9063 26.0904C55.9063 27.0325 55.8365 27.9629 55.7016 28.8678H18.4259C18.291 27.9629 18.2212 27.0325 18.2212 26.0904C18.2212 24.7714 18.3561 23.4827 18.6143 22.2382C20.3939 13.6803 27.9751 7.24609 37.0637 7.24609C46.1523 7.24609 53.7359 13.6803 55.5131 22.2382C55.7737 23.4827 55.9086 24.7691 55.9086 26.0904H55.9063Z" fill="#CAFBDA"/>
<path d="M19.3006 25.7065C17.6955 27.9931 19.3611 31.5638 19.3611 31.5638L30.5154 27.4418C30.5154 27.4418 20.9057 23.4199 19.3006 25.7042V25.7065Z" fill="black"/>
<path d="M55.9411 22.2405H18.1281C17.1221 22.2405 16.3066 23.0559 16.3066 24.0619V27.0487C16.3066 28.0546 17.1221 28.8701 18.1281 28.8701H55.9411C56.9471 28.8701 57.7626 28.0546 57.7626 27.0487V24.0619C57.7626 23.0559 56.9471 22.2405 55.9411 22.2405Z" fill="#97F8C0"/>
</g>
<defs>
<clipPath id="clip0_108_479">
<rect width="74" height="74" fill="white"/>
</clipPath>
</defs>
</svg>
