<svg width="74" height="74" viewBox="0 0 74 74" fill="none" xmlns="http://www.w3.org/2000/svg">
<g clip-path="url(#clip0_113_51)">
<path d="M36.9111 74C57.2965 74 73.8221 57.4345 73.8221 37C73.8221 16.5655 57.2965 0 36.9111 0C16.5256 0 0 16.5655 0 37C0 57.4345 16.5256 74 36.9111 74Z" fill="#B1BCE9"/>
<path d="M47.8177 39.7496C51.1361 36.7512 53.2223 32.4106 53.2223 27.5791C53.2223 25.018 52.6352 22.5965 51.591 20.4378C48.9432 14.969 43.3529 11.1982 36.8809 11.1982V60.4199H37.8021V43.9321C40.972 43.7553 43.8983 42.6713 46.3349 40.9359L53.4915 56.6794L55.167 55.9141L47.8201 39.7473L47.8177 39.7496Z" fill="white"/>
<path d="M22.1708 20.4378C21.1265 22.5965 20.5394 25.018 20.5394 27.5791C20.5394 32.5501 22.7509 37.0001 26.2387 40.0032L19.0078 55.9165L20.6833 56.6818L27.7378 41.1569C30.1094 42.7643 32.9243 43.7622 35.9596 43.9321V60.4199H36.8809V11.1982C30.4088 11.1982 24.8185 14.969 22.1708 20.4378Z" fill="#F7F7F7"/>
<path d="M36.9065 62.802C38.4599 62.802 39.7191 61.5397 39.7191 59.9826C39.7191 58.4256 38.4599 57.1633 36.9065 57.1633C35.3532 57.1633 34.094 58.4256 34.094 59.9826C34.094 61.5397 35.3532 62.802 36.9065 62.802Z" fill="#FF3932"/>
<path d="M19.813 59.187C21.3663 59.187 22.6256 57.9247 22.6256 56.3677C22.6256 54.8106 21.3663 53.5483 19.813 53.5483C18.2597 53.5483 17.0005 54.8106 17.0005 56.3677C17.0005 57.9247 18.2597 59.187 19.813 59.187Z" fill="#FF3932"/>
<path d="M54.3572 59.187C55.9105 59.187 57.1698 57.9247 57.1698 56.3677C57.1698 54.8106 55.9105 53.5483 54.3572 53.5483C52.8039 53.5483 51.5447 54.8106 51.5447 56.3677C51.5447 57.9247 52.8039 59.187 54.3572 59.187Z" fill="#FF3932"/>
<path d="M36.881 37.4629C31.4648 37.4629 27.0557 33.0455 27.0557 27.6139C27.0557 22.1823 31.4624 17.7649 36.881 17.7649C42.2995 17.7649 46.7063 22.1823 46.7063 27.6139C46.7063 33.0455 42.2995 37.4629 36.881 37.4629ZM36.881 19.135C32.2166 19.135 28.4202 22.9383 28.4202 27.6162C28.4202 32.2941 32.2143 36.0974 36.881 36.0974C41.5477 36.0974 45.3418 32.2941 45.3418 27.6162C45.3418 22.9383 41.5453 19.135 36.881 19.135Z" fill="#E5E5E5"/>
<path d="M36.881 36.0952C41.5453 36.0952 45.3418 32.2919 45.3418 27.614C45.3418 22.9361 41.5477 19.1328 36.881 19.1328C32.2143 19.1328 28.4202 22.9361 28.4202 27.614C28.4202 32.2919 32.2166 36.0952 36.881 36.0952Z" fill="#62C2E8"/>
<path d="M36.9065 36.0951C36.9065 36.0951 36.8903 36.0951 36.881 36.0951C32.2166 36.0951 28.4202 32.2918 28.4202 27.6139C28.4202 22.936 32.2143 19.1327 36.881 19.1327C36.8903 19.1327 36.8972 19.1327 36.9065 19.1327V17.7649C36.9065 17.7649 36.8903 17.7649 36.881 17.7649C31.4648 17.7649 27.0557 22.1823 27.0557 27.6139C27.0557 33.0455 31.4624 37.4629 36.881 37.4629C36.8903 37.4629 36.8972 37.4629 36.9065 37.4629V36.0951Z" fill="#D6D6D6"/>
<path d="M36.881 36.0951V19.135C32.2166 19.135 28.4202 22.9383 28.4202 27.6162C28.4202 32.2941 32.2166 36.0974 36.881 36.0974V36.0951Z" fill="#46B8DB"/>
<path d="M21.5443 24.9971H19.5254C18.5129 24.9971 17.6921 25.8198 17.6921 26.8347V28.3933C17.6921 29.4082 18.5129 30.2309 19.5254 30.2309H21.5443C22.5568 30.2309 23.3775 29.4082 23.3775 28.3933V26.8347C23.3775 25.8198 22.5568 24.9971 21.5443 24.9971Z" fill="#F7F7F7"/>
<path d="M22.665 26.8999H15.9724C15.579 26.8999 15.26 27.2196 15.26 27.614V27.6164C15.26 28.0108 15.579 28.3305 15.9724 28.3305H22.665C23.0584 28.3305 23.3774 28.0108 23.3774 27.6164V27.614C23.3774 27.2196 23.0584 26.8999 22.665 26.8999Z" fill="#F7F7F7"/>
<path d="M57.7033 26.8999H51.0108C50.6173 26.8999 50.2983 27.2196 50.2983 27.614V27.6164C50.2983 28.0108 50.6173 28.3305 51.0108 28.3305H57.7033C58.0968 28.3305 58.4157 28.0108 58.4157 27.6164V27.614C58.4157 27.2196 58.0968 26.8999 57.7033 26.8999Z" fill="white"/>
<path d="M54.225 24.9971H52.2061C51.1936 24.9971 50.3728 25.8198 50.3728 26.8347V28.3933C50.3728 29.4082 51.1936 30.2309 52.2061 30.2309H54.225C55.2374 30.2309 56.0582 29.4082 56.0582 28.3933V26.8347C56.0582 25.8198 55.2374 24.9971 54.225 24.9971Z" fill="white"/>
</g>
<defs>
<clipPath id="clip0_113_51">
<rect width="73.8221" height="74" fill="white"/>
</clipPath>
</defs>
</svg>
