<svg width="97" height="95" viewBox="0 0 97 95" fill="none" xmlns="http://www.w3.org/2000/svg">
<path fill-rule="evenodd" clip-rule="evenodd" d="M46.8953 94.2907C72.7949 94.2907 93.7907 73.2949 93.7907 47.3953C93.7907 21.4958 72.7949 0.5 46.8953 0.5C28.4693 0.5 12.5253 11.127 4.85806 26.5863C6.59613 24.035 9.2904 22.0769 12.6359 21.1797C15.6476 20.3719 17.9529 20.5614 21.0087 21.9194C19.2352 18.3442 19.5056 14.8444 21.0455 11.4182C22.5818 8.00128 25.0765 5.51723 28.6586 4.26048C34.3564 2.26403 43.1542 4.41136 46.4824 14.5279C46.6308 14.1912 46.772 13.8526 46.9126 13.5152L46.9127 13.515C47.2202 12.7776 47.5254 12.0457 47.899 11.3502C49.9743 7.48791 53.0283 4.77937 57.407 3.89983C64.4791 2.47931 70.8043 6.51085 72.7011 13.5527C73.4591 16.368 73.3855 19.1262 71.9284 21.9341C75.5104 20.1566 78.9766 20.405 82.3875 21.923C85.8114 23.4466 88.3135 25.9159 89.5903 29.4911C91.6122 35.153 89.6013 43.9778 79.2967 47.415C79.5275 47.5059 79.7545 47.5919 79.9779 47.6765L79.978 47.6765L79.9783 47.6767C80.4598 47.859 80.9246 48.0351 81.3757 48.2412C85.793 50.2726 88.9776 53.4227 89.9748 58.3172C91.4669 65.6369 86.9943 72.2353 79.6168 73.7938C76.8903 74.3698 74.953 74.1526 71.9854 72.9014H71.9799C75.1793 79.222 71.3985 87.5261 65.2297 90.1813C58.9542 92.8806 49.8528 90.4591 46.5081 80.2929C46.3251 80.6816 46.1503 81.0785 45.9746 81.4772C45.5924 82.345 45.2063 83.2215 44.7235 84.041C41.9896 88.6798 37.9329 91.3129 32.5074 91.1804C30.8787 91.1409 29.4045 90.8612 28.0789 90.3631C33.8386 92.889 40.2033 94.2907 46.8953 94.2907ZM26.5887 89.6781C23.9385 88.219 21.9903 85.752 20.6831 82.5028C19.4081 79.3342 19.5222 76.9495 20.902 72.9842C14.9298 75.844 8.09278 72.7157 4.8613 68.2109C9.50186 77.5639 17.1722 85.1474 26.5887 89.6781ZM2.99316 63.9169C1.73831 57.9486 4.4757 50.467 13.7471 47.4003C13.5497 47.3237 13.3634 47.2528 13.185 47.1848L13.1831 47.1841L13.1828 47.184L13.1819 47.1837C12.7997 47.0381 12.454 46.9064 12.1134 46.7636C7.46611 44.8095 4.14899 41.6262 3.00833 36.5771C2.5665 34.6249 2.57941 32.6999 2.98345 30.8996C1.05489 36.031 0 41.59 0 47.3953C0 53.2105 1.05843 58.7784 2.99316 63.9169ZM46.5355 69.4958C46.5251 69.507 46.5155 69.5173 46.5081 69.5268H46.5044C46.3263 69.1646 46.1562 68.7969 45.9861 68.4287C45.608 67.6109 45.2292 66.7914 44.7585 66.0289C42.6759 62.6469 39.6439 60.3983 36.003 58.9024C35.6295 58.7497 35.1916 58.4276 35.05 58.0762C33.0409 53.0786 29.7348 49.3967 24.5687 47.5548C24.4859 47.5236 24.4142 47.461 24.4399 47.4776C24.8879 47.2282 25.3482 46.9883 25.8113 46.747L25.8115 46.7469C26.8416 46.2102 27.8858 45.6662 28.8389 44.9935C31.7439 42.94 33.6959 40.1137 35.0076 36.82C35.1456 36.4741 35.4786 36.0932 35.8135 35.957C40.8306 33.922 44.5469 30.6099 46.3536 25.3805C46.3649 25.3476 46.3895 25.3189 46.4257 25.2768C46.4482 25.2505 46.4752 25.219 46.5063 25.1781C46.5535 25.2959 46.5989 25.408 46.6429 25.5167L46.643 25.5171C46.7137 25.6918 46.7809 25.8578 46.8466 26.0245C48.6956 30.7148 52.0698 33.852 56.6987 35.716C57.2929 35.9571 57.7786 36.2202 58.0528 36.9231C59.9919 41.8893 63.3679 45.4425 68.4457 47.2715C68.4797 47.2839 68.5102 47.3062 68.5506 47.3357L68.5507 47.3357C68.5758 47.354 68.6047 47.3752 68.6407 47.3984C68.5954 47.4253 68.5529 47.4531 68.5119 47.48C68.4263 47.5361 68.3469 47.5882 68.2598 47.6192C63.1784 49.4243 59.9661 53.0842 57.9663 57.9621C57.832 58.2896 57.5542 58.6742 57.2488 58.7957C52.182 60.8105 48.4454 64.1465 46.6056 69.3961C46.5925 69.4343 46.5615 69.4677 46.5355 69.4958ZM69.254 24.5917C67.1994 25.6677 65.2036 26.0337 63.114 25.9307C59.0867 25.7319 56.3951 22.8007 56.7079 18.9643C56.9323 16.2281 58.9156 14.2961 61.3883 14.3807C62.126 14.4065 62.6964 14.6475 63.0146 15.3486C63.3348 16.0533 63.0036 16.5851 62.5565 17.0893C62.4348 17.2263 62.3074 17.3604 62.1799 17.4946L62.1798 17.4947L62.1797 17.4948L62.1797 17.4948C61.8623 17.8289 61.5441 18.1638 61.3092 18.5484C60.8308 19.3323 61.4876 20.5044 62.3523 20.3756C63.5206 20.2026 64.7238 19.9928 65.8001 19.5347C67.5515 18.7858 68.1421 17.2751 67.6123 15.4332C67.0566 13.5049 65.8534 12.0181 64.3191 10.7871C61.5465 8.5625 58.6856 8.40057 55.7769 10.4522C52.0661 13.0669 50.4839 16.6936 51.0634 21.2091C51.5988 25.3731 53.7109 28.4258 57.6646 29.9824C58.8596 30.4532 60.1666 30.6649 61.4525 30.8733L61.453 30.8734L61.4535 30.8735C61.5847 30.8947 61.7157 30.916 61.8464 30.9374C62.54 31.0515 62.9245 31.1159 62.8932 31.9954C62.8643 32.8158 63.0856 33.6627 63.2974 34.4735L63.2974 34.4736L63.309 34.5181C64.4386 38.8404 67.11 41.6741 71.5255 42.6235C76.1525 43.6171 80.1044 42.3678 83.0719 38.5957C84.4794 36.8053 85.3477 34.6966 84.6137 32.4131C83.6294 29.3458 81.4824 27.2518 78.4007 26.2582C76.5444 25.6583 74.9475 26.4459 74.2208 28.2657C73.9865 28.8537 73.8609 29.4846 73.7351 30.1162L73.735 30.1162L73.735 30.1163L73.7349 30.1167C73.6691 30.4473 73.6032 30.7781 73.5216 31.103C73.3561 31.7618 73.5364 32.345 74.1619 32.5198C74.6181 32.6468 75.2381 32.5585 75.6613 32.334C75.9731 32.1682 76.2299 31.9041 76.4883 31.6383C76.6629 31.4587 76.8383 31.2783 77.0319 31.1269C78.0733 30.3136 79.3151 30.8381 79.4513 32.1555C79.6113 33.692 79.1238 34.9984 77.9077 35.9865C74.6641 38.6233 69.4631 36.8605 68.2985 32.7075C67.5297 29.9649 67.9708 27.3251 69.254 24.5917ZM29.9188 68.8607C27.8859 68.7319 26.2613 69.0576 23.7243 70.1377L23.7206 70.1395C25.014 67.4641 25.45 64.8218 24.6626 62.0783C23.5697 58.2749 19.2573 56.4514 15.815 58.2896C14.2126 59.1453 13.335 60.7829 13.4859 62.5457C13.5466 63.2412 13.8686 63.795 14.4996 63.9146C14.9706 64.003 15.5703 63.8318 16.0027 63.5853C16.3051 63.4131 16.5552 63.1524 16.8067 62.8902L16.8067 62.8902L16.8067 62.8901C16.9637 62.7265 17.1213 62.5622 17.2924 62.4187C17.745 62.0415 18.2491 61.898 18.8157 62.231C19.3897 62.5696 19.6234 63.0277 19.4468 63.6865C19.3586 64.0174 19.285 64.3547 19.2115 64.6918C19.0565 65.4025 18.9017 66.1128 18.6097 66.763C17.8646 68.4246 16.3854 69.0999 14.6541 68.5534C11.4971 67.5579 9.31325 65.4345 8.32897 62.2825C7.68321 60.2106 8.44855 58.2804 9.62969 56.56C12.233 52.7695 16.6724 51.1374 21.454 52.1549C25.8566 53.0915 28.9971 56.3999 29.8268 60.9908C29.8798 61.2839 29.8967 61.6076 29.9136 61.9294C29.9482 62.5914 29.9824 63.2458 30.3291 63.611C30.6392 63.9394 31.2652 63.9582 31.9046 63.9774C32.2362 63.9873 32.5714 63.9974 32.868 64.0508C38.2843 65.0224 41.813 69.1459 41.9859 74.6899C42.1331 79.3416 39.6844 83.4338 35.7307 85.1285C33.5836 86.0485 31.5065 85.9878 29.5288 84.6372C27.6062 83.3253 26.07 81.7023 25.3837 79.4225C24.7877 77.4445 25.5052 75.8436 27.4241 75.1095C28.4102 74.7323 29.4901 74.5648 30.5443 74.4194C31.4348 74.2962 32.1302 75.3763 31.6813 76.1767C31.4609 76.569 31.1424 76.909 30.8257 77.2473C30.7219 77.358 30.6184 77.4685 30.5186 77.5806C30.0586 78.0977 29.6208 78.6184 29.9243 79.3765C30.2426 80.1751 30.8865 80.3904 31.6924 80.4014C34.1172 80.4382 36.0545 78.5006 36.2569 75.7995C36.5439 71.9759 33.9295 69.1146 29.9188 68.8607ZM23.7009 24.6325C24.7648 26.7015 25.1518 28.7211 25.0158 30.8325C24.7619 34.8199 21.9526 37.4088 18.17 37.1752C15.3919 37.0022 13.4104 35.0149 13.4767 32.5033C13.4969 31.7194 13.7692 31.1325 14.5106 30.8307C15.2208 30.5436 15.7433 30.9209 16.2382 31.368C16.3643 31.4814 16.4871 31.6017 16.6099 31.7221L16.6099 31.7221C16.9295 32.0355 17.2495 32.3492 17.6309 32.5419C17.9602 32.7094 18.5582 32.656 18.8746 32.4536C19.1837 32.2549 19.4817 31.7158 19.4431 31.3643C19.3327 30.3707 19.1579 29.3531 18.8065 28.4202C18.0504 26.4072 16.4185 25.6675 14.369 26.3079C12.5531 26.8746 11.1273 28.0191 9.95166 29.4746C7.53787 32.461 7.5305 35.5798 9.89278 38.6196C12.8493 42.4248 17.5003 43.8324 22.3407 42.388C26.7378 41.076 29.6373 37.3095 30.0292 32.4315C30.0471 32.2083 30.0578 32.0209 30.0669 31.8634L30.0669 31.8632V31.8632C30.0917 31.4316 30.1037 31.224 30.2136 31.1182C30.3155 31.02 30.5017 31.0094 30.8606 30.9889H30.8606H30.8606C31.0345 30.979 31.2489 30.9667 31.5139 30.9411C31.5443 30.9383 31.5751 30.937 31.6059 30.9356C31.6367 30.9342 31.6675 30.9328 31.6979 30.93C36.2992 30.5197 40.1443 27.6732 41.3715 23.6085C42.8175 18.8263 41.997 14.561 38.1261 11.1569C36.4077 9.64443 34.338 8.63058 32.0566 9.14763C28.6015 9.92965 26.3625 12.272 25.3102 15.6356C24.7803 17.3266 25.4757 18.7913 27.0966 19.5126C27.7361 19.7969 28.4328 19.9498 29.1301 20.1028L29.1301 20.1028L29.1301 20.1028C29.4799 20.1796 29.8298 20.2564 30.1727 20.3498C30.8313 20.5301 31.2894 20.3222 31.6353 19.7389C31.9978 19.1299 31.8138 18.6147 31.4127 18.1418C31.2444 17.9437 31.0611 17.7573 30.8779 17.5709L30.8778 17.5708L30.8778 17.5708C30.6304 17.3192 30.383 17.0676 30.1727 16.7875C29.4184 15.7828 29.9703 14.5739 31.2214 14.4175C33.2212 14.1654 35.0996 15.3265 35.8576 17.2861C37.2319 20.8319 35.3241 24.6187 31.6408 25.6142C28.947 26.3419 26.3743 25.8821 23.7009 24.6325ZM68.796 69.1637L68.7962 69.1646L68.7965 69.1652C68.9062 69.4765 69.0178 69.7931 69.1227 70.1193H69.1209C67.2572 69.168 65.307 68.7356 63.263 68.857C60.4997 69.0226 58.2441 70.0843 57.1531 72.7984C56.3105 74.8942 56.4926 76.955 57.8798 78.8043C58.8015 80.0334 60.1059 80.4603 61.6072 80.3904C62.2953 80.3591 62.8803 80.0463 62.9815 79.3968C63.0588 78.8963 62.873 78.2854 62.6228 77.8217C62.498 77.5911 62.2924 77.4036 62.0873 77.2167C61.8751 77.0232 61.6635 76.8303 61.5428 76.5907C61.3239 76.1583 61.2245 75.5474 61.3496 75.0911C61.5189 74.4746 62.0929 74.252 62.7589 74.4323C63.1047 74.5257 63.4575 74.6033 63.8101 74.6809L63.8102 74.6809L63.8103 74.681C64.5345 74.8403 65.2584 74.9996 65.9215 75.2953C67.4448 75.9743 68.1366 77.4334 67.6803 79.0324C66.7384 82.3335 64.5637 84.6041 61.2908 85.5572C58.9395 86.2436 56.8017 85.2849 55.0006 83.7669C51.229 80.5873 50.173 76.5005 51.4148 71.8305C52.6254 67.2819 55.8285 64.8696 60.3304 64.0158C60.9007 63.9073 61.4839 63.819 62.0616 63.8208C62.6982 63.8245 62.8343 63.5558 62.9208 62.9578C62.9457 62.7877 62.9699 62.6168 62.9941 62.4456L62.9941 62.4455C63.1675 61.2223 63.3436 59.9798 63.7745 58.8435C65.4192 54.501 68.7272 52.3205 73.2843 51.9065C76.848 51.5827 79.8836 52.7198 82.3176 55.3106C85.9015 59.1232 85.5961 63.4546 81.5633 66.798C80.3472 67.8063 79.0263 68.6233 77.3741 68.6877C76.2408 68.7319 75.3467 68.2884 74.6899 67.3758C73.7737 66.1006 73.5603 64.6065 73.4867 63.1032C73.4481 62.3304 74.6697 61.7839 75.3872 62.2457C75.7346 62.4686 76.0382 62.7595 76.342 63.0507L76.3422 63.0509C76.4823 63.1852 76.6225 63.3195 76.767 63.4473C77.2637 63.887 77.7789 64.2477 78.4982 63.933C79.2084 63.6239 79.4586 63.0719 79.4862 62.3267C79.58 59.8077 77.6243 57.8075 74.8463 57.6162C71.0214 57.353 68.1605 59.9733 67.9637 63.9974C67.9121 65.0297 67.9894 66.0896 68.1826 67.1034C68.3136 67.7953 68.55 68.4661 68.796 69.1637ZM39.6549 54.639C42.1975 55.7651 44.4623 57.3034 46.3738 59.1398L46.3756 59.1416C46.8276 58.8119 47.2643 58.4637 47.6978 58.1181L47.6978 58.118L47.6979 58.118C48.6602 57.3507 49.6068 56.5959 50.6697 56.0834C52.7487 55.0788 54.1561 53.6969 55.1533 51.6029C55.6671 50.5243 56.4359 49.566 57.2129 48.5976C57.5598 48.1652 57.9085 47.7307 58.2367 47.2825C56.3694 45.3909 54.9012 43.1516 53.7697 40.6804C53.6759 40.4743 53.5122 40.2351 53.319 40.1523C50.7562 39.0538 48.5135 37.4824 46.6167 35.6847C46.11 36.0398 45.617 36.407 45.1275 36.7716L45.1274 36.7716L45.1273 36.7717C44.0191 37.5971 42.9293 38.4088 41.7412 39.0354C40.1406 39.88 38.9981 40.8865 38.1721 42.5499C37.5597 43.7812 36.7209 44.9005 35.8716 46.0337L35.8715 46.0338L35.8715 46.0338C35.4985 46.5315 35.1235 47.0319 34.7648 47.5456C36.5843 49.417 38.0801 51.6397 39.195 54.1219C39.287 54.3243 39.4618 54.5525 39.6549 54.639ZM50.3758 46.058C50.6253 46.5075 50.8741 46.9558 51.1848 47.3524H51.1867C51.0226 47.6353 50.8699 47.9196 50.7192 48.2001C50.375 48.8409 50.0414 49.462 49.6063 50.0021C49.3556 50.3134 48.9946 50.5302 48.6304 50.7488L48.6303 50.7489L48.6303 50.7489C48.3637 50.909 48.0955 51.07 47.8677 51.2699C46.9092 52.1108 46.142 51.8256 45.0657 51.3122C43.7727 50.6954 43.1425 49.6341 42.508 48.5657L42.5079 48.5655C42.321 48.2506 42.1337 47.9352 41.9289 47.6303C41.8406 47.4978 41.9399 47.1739 42.0411 46.9881C42.4514 46.2355 42.8819 45.4921 43.3382 44.7672C43.4762 44.5482 43.6932 44.3532 43.9159 44.2133C44.6168 43.7772 45.3214 43.3411 46.061 42.975C46.2965 42.8572 46.6737 42.883 46.9313 42.9823C47.1494 43.0658 47.3504 43.1923 47.5517 43.319C47.7409 43.4381 47.9304 43.5573 48.1345 43.6411C49.2997 44.1195 49.8394 45.0917 50.3758 46.058Z" fill="white"/>
<path d="M18.9476 27.9997L11.9229 35.3161L18.8797 45.3208H15.011L9.64919 37.6301L8.29176 38.9232V45.3208H5V27.9997H8.29176V34.6014L14.6717 27.9997H18.9476Z" fill="#4700A2"/>
<path d="M37.0854 45.3208H33.7597V34.6695L25.9206 43.3811V45.3208H22.5949V27.9997H25.9206V38.5829L33.7597 29.9053V27.9997H37.0854V45.3208Z" fill="#4700A2"/>
<path d="M57.6234 23.4057C56.5601 24.8803 55.5759 25.9239 54.671 26.5364C54.0149 26.9901 53.1326 27.3985 52.024 27.7615L49.2073 28.6803C47.963 29.1113 46.9563 29.8373 46.1871 30.8582C47.1825 30.1095 48.1327 29.7465 49.0377 29.7692C51.3227 29.8826 53.1326 30.722 54.4674 32.2874C55.7117 33.7393 56.3338 35.5089 56.3338 37.596C56.3338 39.842 55.6212 41.7477 54.1959 43.313C52.7253 44.8784 50.9154 45.6611 48.7662 45.6611C47.8386 45.6611 46.8318 45.4342 45.7459 44.9805C44.66 44.4587 43.8003 43.8121 43.1668 43.0408C41.8546 41.3847 41.1985 38.9572 41.1985 35.7584C41.1985 32.7411 42.2618 30.1322 44.3885 27.9316C45.1351 27.1149 46.2776 26.4456 47.816 25.9239C50.1462 25.1298 51.4132 24.6761 51.6168 24.5627C53.0421 23.8367 54.1393 22.8158 54.9085 21.5L57.6234 23.4057ZM52.8385 37.596C52.8385 36.2802 52.4539 35.1686 51.6847 34.2611C50.9381 33.331 49.9766 32.8659 48.8001 32.8659C47.6237 32.8659 46.6395 33.331 45.8477 34.2611C45.0785 35.1686 44.6939 36.2802 44.6939 37.596C44.6939 38.9119 45.0672 40.0235 45.8138 40.931C46.583 41.8157 47.5671 42.2581 48.7662 42.2581C49.92 42.2581 50.8815 41.8044 51.6507 40.8969C52.4426 39.9668 52.8385 38.8665 52.8385 37.596Z" fill="#4700A2"/>
<path d="M73.1654 37.7322H61.8309C61.944 39.1387 62.3399 40.2844 63.0186 41.1692C63.7879 42.122 64.7833 42.5984 66.005 42.5984C68.2221 42.5984 69.4891 41.5548 69.8058 39.4677H73.0636C72.7695 41.5321 71.9324 43.1315 70.5524 44.2659C69.2628 45.2868 67.7018 45.7972 65.8692 45.7972C64.8286 45.7972 63.8444 45.5817 62.9168 45.1506C61.8309 44.6969 60.9825 44.0957 60.3717 43.3471C59.7834 42.5984 59.3083 41.5435 58.9464 40.1823C58.6522 39.0707 58.5052 37.9363 58.5052 36.7793C58.5052 34.2158 59.0595 32.1059 60.168 30.4498C61.4802 28.5215 63.4032 27.5573 65.9371 27.5573C68.3126 27.5573 70.1678 28.4988 71.5026 30.3817C72.6111 31.9698 73.1654 33.9776 73.1654 36.405V37.7322ZM69.7379 34.7375C69.6022 33.5805 69.2063 32.6391 68.5502 31.9131C67.8262 31.1191 66.9439 30.722 65.9032 30.722C64.8399 30.722 63.9462 31.1191 63.2223 31.9131C62.5435 32.6164 62.1024 33.5579 61.8988 34.7375H69.7379Z" fill="#4700A2"/>
<path d="M92 36.8814C92 37.8796 91.8303 38.9572 91.491 40.1142C91.1516 41.4301 90.6991 42.4509 90.1335 43.1769C89.5001 44.039 88.663 44.7536 87.6223 45.3208C86.5816 45.8879 85.5409 46.1715 84.5002 46.1715C82.6903 46.1715 81.1632 45.5136 79.9189 44.1978V50.0169H76.5932V27.9656H79.9189V29.531C81.1632 28.2152 82.6903 27.5573 84.5002 27.5573C85.5409 27.5573 86.5816 27.8409 87.6223 28.408C88.663 28.9525 89.5001 29.6558 90.1335 30.5179C90.6991 31.2438 91.1516 32.2647 91.491 33.5805C91.8303 34.7375 92 35.8378 92 36.8814ZM88.6404 36.8814C88.6404 35.2026 88.2558 33.8074 87.4866 32.6958C86.6268 31.4253 85.5296 30.7901 84.1948 30.7901C82.8147 30.7901 81.7062 31.414 80.8691 32.6617C80.1225 33.7961 79.7492 35.2026 79.7492 36.8814C79.7492 38.5375 80.1338 39.9214 80.903 41.033C81.7401 42.2808 82.8374 42.9047 84.1948 42.9047C85.5296 42.9047 86.6268 42.2695 87.4866 40.999C88.2558 39.8874 88.6404 38.5148 88.6404 36.8814Z" fill="#4700A2"/>
<path d="M28.928 67.2857C28.928 69.5317 28.1814 71.3126 26.6882 72.6284C25.3082 73.8761 23.5435 74.5 21.3943 74.5C19.1093 74.5 17.3107 73.8761 15.9985 72.6284C14.5732 71.3126 13.8605 69.509 13.8605 67.2176V66.4009H17.3898C17.3898 69.5544 18.6907 71.1311 21.2924 71.1311C23.9168 71.1311 25.229 69.8039 25.229 67.1496C25.229 65.6977 24.72 64.7108 23.7019 64.189C22.8874 63.7806 21.4056 63.5765 19.2563 63.5765V60.1395H20.0368C21.6205 60.1395 22.7856 59.9013 23.5322 59.4248C24.324 58.9031 24.72 58.0637 24.72 56.9067C24.72 55.9538 24.4258 55.2052 23.8376 54.6607C23.2494 54.1162 22.4802 53.844 21.53 53.844C20.3309 53.844 19.4373 54.1729 18.8491 54.8308C18.2835 55.5341 17.9781 56.6798 17.9328 58.2678H14.4714C14.5166 55.7723 15.184 53.844 16.4736 52.4828C17.7405 51.1443 19.4373 50.475 21.5639 50.475C23.4191 50.475 24.9801 51.0082 26.2471 52.0744C27.5592 53.2314 28.2153 54.8082 28.2153 56.8046C28.2153 58.8237 27.4801 60.4344 26.0095 61.6368C27.9552 62.8392 28.928 64.7221 28.928 67.2857Z" fill="#4700A2"/>
<path d="M52.9208 62.5215C52.9208 65.8338 51.9706 68.6129 50.0702 70.8588C48.034 73.2863 45.3644 74.5 42.0614 74.5C38.713 74.5 36.0434 73.2976 34.0525 70.8928C32.1974 68.6923 31.2698 65.9018 31.2698 62.5215C31.2698 59.164 32.1861 56.3622 34.0186 54.1162C36.0321 51.6888 38.713 50.475 42.0614 50.475C45.3644 50.475 48.034 51.7001 50.0702 54.1502C51.9706 56.4416 52.9208 59.232 52.9208 62.5215ZM49.4254 62.5215C49.4254 60.0033 48.8033 57.9502 47.5589 56.3622C46.2241 54.6153 44.3916 53.7419 42.0614 53.7419C39.7311 53.7419 37.8986 54.6153 36.5638 56.3622C35.2968 57.9729 34.6634 60.026 34.6634 62.5215C34.6634 65.0171 35.2968 67.0702 36.5638 68.6809C37.876 70.3824 39.7085 71.2331 42.0614 71.2331C44.3916 71.2331 46.2241 70.3824 47.5589 68.6809C48.8033 67.0929 49.4254 65.0397 49.4254 62.5215Z" fill="#4700A2"/>
<path d="M83.6323 73.9555H80.9514C79.7071 73.9555 78.4628 73.6039 77.2185 72.9006C76.042 72.22 75.0918 71.3806 74.3679 70.3824C73.3498 68.9532 72.6711 66.9114 72.3317 64.2571H71.1101V73.9555H67.7165V64.2571H66.4948C66.1554 66.8433 65.4767 68.8624 64.4587 70.3143C63.7573 71.3579 62.8184 72.2087 61.642 72.8666C60.3751 73.5925 59.1308 73.9555 57.9091 73.9555H55.1603V70.5526H57.9091C58.5878 70.5526 59.2778 70.303 59.9791 69.8039C60.6579 69.3955 61.2121 68.8397 61.642 68.1364C62.0492 67.4559 62.3886 66.5711 62.6601 65.4821C62.9316 64.3932 63.0673 63.4403 63.0673 62.6236C63.0673 61.7616 62.9316 60.7633 62.6601 59.629C62.3886 58.4947 62.0492 57.5872 61.642 56.9067C61.2574 56.2487 60.7144 55.6816 60.0131 55.2052C59.3117 54.7061 58.6104 54.4565 57.9091 54.4565H55.1603V51.0535H57.9091C59.1534 51.0535 60.3977 51.4052 61.642 52.1085C62.8184 52.7664 63.7573 53.6171 64.4587 54.6607C65.4994 56.1126 66.1894 58.1771 66.5287 60.8541H67.7165V51.0535H71.1101V60.8541H72.2978C72.5919 58.2678 73.2819 56.192 74.3679 54.6267C75.0466 53.6058 75.9968 52.7664 77.2185 52.1085C78.4628 51.4052 79.7071 51.0535 80.9514 51.0535H83.6323V54.4565H80.9514C80.2274 54.4565 79.5148 54.6947 78.8135 55.1711C78.1121 55.6475 77.5578 56.2261 77.1506 56.9067C76.766 57.5646 76.438 58.472 76.1665 59.629C75.9176 60.8087 75.7932 61.8069 75.7932 62.6236C75.7932 63.0093 75.8271 63.4403 75.895 63.9168C75.9629 64.3705 76.0534 64.8809 76.1665 65.4481C76.4606 66.5597 76.7999 67.4559 77.1845 68.1364C77.3882 68.4767 77.6257 68.7944 77.8972 69.0893C78.1913 69.3615 78.508 69.6111 78.8474 69.8379C79.1868 70.0648 79.5374 70.2463 79.8994 70.3824C80.2614 70.4958 80.6121 70.5526 80.9514 70.5526H83.6323V73.9555Z" fill="#4700A2"/>
</svg>
