<svg width="74" height="74" viewBox="0 0 74 74" fill="none" xmlns="http://www.w3.org/2000/svg">
<g clip-path="url(#clip0_113_100)">
<path d="M74 37C74 43.9925 72.0599 50.5313 68.6869 56.1095C66.9166 59.0451 64.7462 61.7132 62.2548 64.037C61.2336 64.9931 60.1589 65.891 59.0353 66.7261C58.4537 67.1588 57.8559 67.5751 57.2488 67.9729C56.9673 68.1567 56.6811 68.3381 56.395 68.5149C56.3345 68.5521 56.2717 68.5917 56.2089 68.6266C55.6599 68.9639 55.097 69.2849 54.5271 69.5919C54.434 69.6431 54.341 69.6919 54.2479 69.7408C53.0964 70.3503 51.9077 70.9016 50.6841 71.3854C50.4166 71.4924 50.1467 71.5971 49.8769 71.6971H49.8746C48.4346 72.2321 46.9551 72.6787 45.4361 73.0323C44.2474 73.3115 43.0378 73.5301 41.8072 73.6883C41.3652 73.7488 40.9186 73.7976 40.4719 73.8372C40.1044 73.8721 39.7345 73.9023 39.3646 73.9232C39.3344 73.9256 39.3065 73.9279 39.2762 73.9302C38.7458 73.9628 38.2108 73.9837 37.6711 73.993C37.5711 73.993 37.4734 73.9977 37.3734 73.9977C37.3292 73.9977 37.2826 73.9977 37.2384 73.9977C37.1594 73.9977 37.0803 73.9977 37.0012 73.9977H36.9663C36.829 73.9977 36.6941 73.9977 36.5592 73.9977C35.9427 73.9907 35.3333 73.9674 34.7261 73.9302C34.6819 73.9279 34.6354 73.9256 34.5912 73.9209C34.5633 73.9209 34.5354 73.9186 34.5098 73.9139C33.7165 73.8628 32.9326 73.786 32.1533 73.6836C31.716 73.6255 31.2786 73.5604 30.8459 73.4883C28.5127 73.0998 26.2493 72.4903 24.0859 71.6831C23.8463 71.5947 23.6067 71.5017 23.3694 71.4063C22.3226 70.9923 21.299 70.5317 20.3034 70.0246C20.0219 69.885 19.7451 69.7408 19.4706 69.5919C19.2822 69.4919 19.0961 69.3872 18.91 69.2825C18.4727 69.0383 18.0377 68.7824 17.612 68.5196C17.3072 68.3311 17.0071 68.1404 16.7071 67.945C16.1046 67.5495 15.516 67.1355 14.9391 66.7075C14.1784 66.1422 13.4387 65.5467 12.7245 64.921C9.81906 62.3948 7.31137 59.4219 5.3108 56.1095C1.94008 50.5313 0 43.9925 0 37C0 16.567 16.5652 0 37.0012 0C57.4372 0 74 16.567 74 37Z" fill="#E3E2FC"/>
<path d="M61.7152 35.7973C61.7152 38.5259 61.2592 41.1498 60.4171 43.5946C60.1729 44.3064 59.896 45.0042 59.5866 45.6835C59.5773 45.7044 59.568 45.7277 59.5587 45.7486C59.5587 45.7509 59.5564 45.7509 59.5564 45.7533C58.142 48.8447 56.0926 51.5873 53.5756 53.8088C53.3965 53.9693 53.2151 54.1251 53.0313 54.2763C53.0266 54.2787 53.0243 54.281 53.0197 54.2833C52.3358 54.8556 51.6216 55.3859 50.8772 55.8767C51.7309 56.121 52.5684 56.4048 53.3872 56.7421C54.3503 57.1399 55.2924 57.6144 56.2089 58.1843V68.6265C55.66 68.9638 55.097 69.2848 54.5271 69.5918C54.434 69.643 54.341 69.6918 54.2479 69.7407C53.0964 70.3501 51.9077 70.9015 50.6841 71.3853C50.4166 71.4923 50.1468 71.597 49.8769 71.697H49.8746C48.4347 72.232 46.9552 72.6786 45.4361 73.0322C44.2474 73.3114 43.0378 73.53 41.8072 73.6882C41.3652 73.7487 40.9186 73.7975 40.4719 73.8371C40.1044 73.872 39.7345 73.9022 39.3646 73.9231C39.3344 73.9255 39.3065 73.9278 39.2762 73.9301C38.7459 73.9627 38.2108 73.9836 37.6711 73.9929V11.7563C47.3716 11.7563 55.7507 17.5299 59.5471 25.8203H59.5494C59.5494 25.8203 59.5541 25.832 59.5564 25.8366C60.9428 28.8746 61.7152 32.2452 61.7152 35.7973Z" fill="#62C2E8"/>
<path d="M37.6711 11.7563V73.9929C37.571 73.9929 37.4733 73.9976 37.3733 73.9976C37.3291 73.9976 37.2826 73.9976 37.2384 73.9976C37.1593 73.9976 37.0802 73.9976 37.0011 73.9976H36.9662C36.829 73.9976 36.694 73.9976 36.5591 73.9976C35.9427 73.9906 35.3332 73.9673 34.726 73.9301C34.6818 73.9278 34.6353 73.9255 34.5911 73.9208C34.5632 73.9208 34.5353 73.9185 34.5097 73.9138C33.7165 73.8627 32.9325 73.7859 32.1532 73.6835C31.7159 73.6254 31.2786 73.5603 30.8459 73.4881C28.5127 73.0997 26.2492 72.4902 24.0858 71.683C23.8462 71.5946 23.6066 71.5016 23.3693 71.4062C22.3225 70.9922 21.299 70.5316 20.3034 70.0245C20.0219 69.8849 19.7451 69.7407 19.4706 69.5918C19.2821 69.4918 19.096 69.3871 18.9099 69.2824V58.4797C19.9172 57.8144 20.9501 57.2701 22.0131 56.8188C22.839 56.4699 23.6834 56.1745 24.5418 55.9233C24.0765 55.6185 23.6229 55.2952 23.1809 54.9602L23.1693 54.9509C22.8832 54.7323 22.5994 54.5113 22.3225 54.281C22.1364 54.1251 21.9527 53.9693 21.7712 53.8088C19.2542 51.585 17.2048 48.8424 15.7951 45.7509C15.709 45.5602 15.6253 45.3695 15.5415 45.1764L15.5346 45.1624C15.4555 44.974 15.3764 44.7856 15.3043 44.5972C15.1507 44.2064 15.0065 43.8132 14.8716 43.4131C14.7367 43.0154 14.6134 42.6106 14.5017 42.2035C14.4482 42.0105 14.397 41.8174 14.3482 41.6243C14.2807 41.3591 14.2202 41.0916 14.1644 40.8218C14.1272 40.659 14.0946 40.4961 14.0644 40.331C13.7806 38.8632 13.634 37.3488 13.634 35.7973C13.634 33.1361 14.069 30.5727 14.8716 28.1768C15.1391 27.3789 15.4485 26.5996 15.7951 25.839C19.5846 17.5392 27.966 11.7563 37.6711 11.7563Z" fill="#61AFD6"/>
<path d="M18.9101 58.4797V69.2825C18.4727 69.0382 18.0377 68.7823 17.612 68.5195C17.3073 68.3311 17.0072 68.1403 16.7071 67.9449C16.1046 67.5495 15.5161 67.1354 14.9392 66.7074C14.1785 66.1421 13.4388 65.5466 12.7246 64.9209C14.6414 61.9876 16.7071 59.9406 18.9101 58.4797Z" fill="#1C8FC9"/>
<path d="M62.2549 64.037C61.2337 64.993 60.1589 65.8909 59.0354 66.726C58.4538 67.1587 57.856 67.5751 57.2488 67.9728C56.9673 68.1566 56.6812 68.338 56.3951 68.5148C56.3346 68.5521 56.2718 68.5916 56.209 68.6265V58.1843C58.3561 59.5195 60.3753 61.3782 62.2549 64.037Z" fill="#3299D9"/>
<path d="M64.1298 28.5723C62.6317 27.1254 61.0685 26.2461 59.5471 25.8228C59.5494 25.8274 59.5518 25.8344 59.5541 25.839C60.9405 28.8747 61.7129 32.2476 61.7129 35.7997C61.7129 39.3517 60.9405 42.7177 59.5564 45.7487C61.0755 45.323 62.634 44.4437 64.1298 42.9968C64.7207 42.4246 65.044 41.6291 65.044 40.8056V30.7612C65.044 29.9377 64.7207 29.1422 64.1298 28.57V28.5723Z" fill="#3299D9"/>
<path d="M13.634 35.7974C13.634 32.2477 14.4063 28.8771 15.7928 25.8391V25.8345C14.29 26.2625 12.7454 27.1395 11.2636 28.57C10.6727 29.1423 10.3494 29.9378 10.3494 30.7613V40.8057C10.3494 41.6291 10.6727 42.4247 11.2636 42.9969C12.7407 44.4275 14.283 45.3045 15.7858 45.7348C14.404 42.7062 13.634 39.3425 13.634 35.7998V35.7974Z" fill="#1C8FC9"/>
<path d="M53.5755 53.809C52.8521 54.4487 52.0867 55.0442 51.2912 55.5932C51.2865 55.5955 51.2842 55.6001 51.2795 55.6025C51.254 55.6211 51.226 55.6373 51.2004 55.6536C51.0027 55.7885 50.8027 55.9211 50.6003 56.0514C50.5514 56.0816 50.5049 56.1119 50.456 56.1421C50.2606 56.2654 50.0606 56.3864 49.8605 56.505C49.8047 56.5376 49.7512 56.5701 49.6954 56.6004C49.5 56.7144 49.3046 56.8237 49.1045 56.9307C49.0417 56.9656 48.9812 56.9982 48.9184 57.0307C48.7253 57.1331 48.5299 57.2331 48.3345 57.3308C48.2647 57.3657 48.1973 57.3983 48.1275 57.4331C47.9367 57.5262 47.7437 57.6169 47.5482 57.703C47.4715 57.7379 47.397 57.7704 47.3203 57.8053C47.1319 57.8891 46.9388 57.9682 46.748 58.0473C46.6643 58.0821 46.5829 58.1147 46.4991 58.1473C46.3107 58.2217 46.1223 58.2915 45.9338 58.3613C45.8454 58.3939 45.7547 58.4264 45.6663 58.459C45.4802 58.5241 45.2941 58.5869 45.1057 58.6474C45.0103 58.6776 44.9149 58.7102 44.8196 58.7405C44.6358 58.7986 44.4497 58.8521 44.2636 58.9056C44.1636 58.9335 44.0635 58.9638 43.9612 58.9917C43.7774 59.0405 43.5936 59.0871 43.4099 59.1336C43.3029 59.1592 43.1982 59.1871 43.0912 59.2103C42.9097 59.2522 42.726 59.2894 42.5422 59.329C42.4305 59.3522 42.3212 59.3755 42.2095 59.3964C42.0281 59.4313 41.8443 59.4616 41.6605 59.4918C41.5466 59.5104 41.4326 59.5314 41.3186 59.55C41.1348 59.5779 40.9487 59.6011 40.7649 59.6244C40.6486 59.6384 40.5346 59.657 40.4207 59.6686C40.2322 59.6895 40.0391 59.7058 39.8484 59.7244C39.7367 59.7337 39.6228 59.7477 39.5111 59.757C39.3041 59.7733 39.097 59.7826 38.8877 59.7942C38.79 59.7989 38.6923 59.8058 38.5946 59.8105C38.2875 59.8221 37.9804 59.8291 37.671 59.8291C37.3616 59.8291 37.0523 59.8221 36.7475 59.8105C36.6498 59.8058 36.5521 59.7989 36.4544 59.7942C36.2451 59.7826 36.0357 59.7733 35.8287 59.757C35.717 59.7477 35.6053 59.7361 35.4937 59.7268C35.3029 59.7105 35.1098 59.6919 34.9214 59.6709C34.8051 59.657 34.6911 59.6407 34.5771 59.6267C34.391 59.6035 34.2049 59.5802 34.0212 59.5523C33.9072 59.5337 33.7932 59.5127 33.6815 59.4941C33.4978 59.4639 33.314 59.4337 33.1325 59.3988C33.0209 59.3778 32.9115 59.3522 32.8022 59.3313C32.6184 59.2941 32.4347 59.2545 32.2532 59.2127C32.1462 59.1871 32.0415 59.1615 31.9345 59.1359C31.7508 59.0894 31.567 59.0452 31.3832 58.994C31.2832 58.9661 31.1808 58.9359 31.0808 58.9079C30.8947 58.8544 30.7086 58.8009 30.5248 58.7428C30.4295 58.7125 30.3364 58.6823 30.241 58.6497C30.0526 58.5893 29.8642 58.5264 29.6781 58.459C29.5897 58.4264 29.5013 58.3939 29.4129 58.3613C29.2221 58.2915 29.0337 58.2194 28.8453 58.145C28.7639 58.1124 28.6824 58.0798 28.5987 58.0449C28.4056 57.9658 28.2149 57.8844 28.0241 57.8007C27.9497 57.7681 27.8752 57.7332 27.7985 57.7007C27.6031 57.6123 27.41 57.5215 27.2169 57.4285C27.1495 57.3959 27.0797 57.361 27.0122 57.3285C26.8145 57.2308 26.6191 57.1284 26.4237 57.0261C26.3632 56.9935 26.3027 56.9609 26.2422 56.9284C26.0422 56.819 25.8444 56.7074 25.6467 56.5934C25.5932 56.5632 25.5397 56.5306 25.4885 56.5004C25.2861 56.3817 25.0861 56.2584 24.886 56.1328C24.8395 56.1049 24.7953 56.0747 24.7488 56.0468C24.5441 55.9165 24.3417 55.7816 24.1416 55.6443C24.1184 55.628 24.0928 55.6118 24.0695 55.5955C24.0649 55.5932 24.0625 55.5908 24.0602 55.5862C23.2623 55.0349 22.4993 54.4417 21.7735 53.802C21.7061 53.9392 21.6502 54.0811 21.6037 54.23C21.2199 55.4675 21.6758 56.7911 22.7412 57.5239C27.1518 60.5642 32.3137 62.1692 37.6734 62.1692C43.033 62.1692 48.1973 60.5618 52.6078 57.5239C53.6732 56.7888 54.1315 55.4652 53.7453 54.2277C53.6988 54.0788 53.6407 53.9369 53.5755 53.802V53.809Z" fill="#3299D9"/>
<path d="M61.7151 35.7975C61.7151 39.3472 60.9427 42.7178 59.5563 45.7535C56.1623 46.3257 52.5032 46.756 48.6695 47.0329C47.8135 47.0957 46.9504 47.1492 46.0781 47.2003C43.3378 47.3515 40.5253 47.426 37.6734 47.426C37.371 47.426 37.0662 47.426 36.7685 47.4213C36.7196 47.4237 36.6731 47.4213 36.6219 47.4213C35.1517 47.4144 33.6885 47.3818 32.2463 47.3329C31.7857 47.3167 31.3251 47.298 30.8668 47.2771C29.6665 47.2259 28.4778 47.1608 27.3053 47.0771C26.4074 47.0166 25.5211 46.9468 24.6441 46.8677C21.5525 46.5955 18.5843 46.221 15.7974 45.7488C14.411 42.7155 13.6387 39.3449 13.6387 35.7952C13.6387 32.2454 14.411 28.8748 15.7974 25.8368C21.7921 24.8273 28.615 24.2597 35.7263 24.1736C36.3009 24.1666 36.8755 24.1597 37.4547 24.1597H37.6757C38.7086 24.1597 39.7368 24.169 40.758 24.1899C41.7931 24.2108 42.8237 24.2388 43.8472 24.2806C44.3171 24.2992 44.7893 24.3202 45.2569 24.3434C46.6876 24.4132 48.1042 24.5039 49.4977 24.6133C51.1004 24.7412 52.6753 24.8971 54.2106 25.0785C56.053 25.2902 57.8395 25.5414 59.5586 25.8299C60.9451 28.8655 61.7174 32.2384 61.7174 35.7905L61.7151 35.7975Z" fill="#3C3642"/>
<path d="M54.2083 25.0854L46.0757 47.2003C43.3354 47.3515 40.523 47.4259 37.671 47.4259C37.3686 47.4259 37.0639 47.4259 36.7661 47.4213L45.2546 24.3503C46.6852 24.4201 48.1019 24.5108 49.4953 24.6202C51.0981 24.7481 52.6729 24.904 54.2083 25.0854Z" fill="white"/>
<path d="M40.7556 24.1946L32.2439 47.3306C31.7833 47.3143 31.3227 47.2957 30.8644 47.2748C29.6641 47.2236 28.4754 47.1585 27.303 47.0747L35.724 24.1736C36.2985 24.1666 36.8731 24.1597 37.4524 24.1597H37.6734C38.7062 24.1597 39.7344 24.169 40.7556 24.1899V24.1946Z" fill="white"/>
<path d="M29.9549 67.6774H23.5927C22.9088 67.6774 22.3528 67.1215 22.3528 66.4376C22.3528 65.7537 22.9088 65.1978 23.5927 65.1978H29.9549C30.6389 65.1978 31.1948 65.7537 31.1948 66.4376C31.1948 67.1215 30.6389 67.6774 29.9549 67.6774Z" fill="#1C8FC9"/>
<path d="M52.9684 67.6774H46.6061C45.9222 67.6774 45.3662 67.1215 45.3662 66.4376C45.3662 65.7537 45.9222 65.1978 46.6061 65.1978H52.9684C53.6523 65.1978 54.2082 65.7537 54.2082 66.4376C54.2082 67.1215 53.6523 67.6774 52.9684 67.6774Z" fill="#3299D9"/>
<path d="M31.1949 72.6253C31.1949 72.9603 31.0599 73.265 30.8459 73.4884C28.5127 73.0999 26.2493 72.4904 24.0859 71.6832C23.8463 71.5949 23.6067 71.5018 23.3694 71.4064C23.4415 71.3925 23.5159 71.3855 23.5927 71.3855H29.955C30.6389 71.3855 31.1949 71.9391 31.1949 72.6253Z" fill="#1C8FC9"/>
<path d="M50.684 71.3855C50.4165 71.4925 50.1466 71.5972 49.8768 71.6972H49.8745C48.4345 72.2322 46.955 72.6788 45.436 73.0324C45.3895 72.9045 45.3662 72.7672 45.3662 72.6253C45.3662 72.2811 45.5058 71.9717 45.7291 71.7484C45.9524 71.5251 46.2641 71.3855 46.6061 71.3855H50.684Z" fill="#3299D9"/>
<path d="M36.7475 59.8173C36.6498 59.8127 36.5521 59.8057 36.4544 59.801C36.2451 59.7894 36.0357 59.7801 35.8287 59.7638C35.717 59.7545 35.6053 59.7429 35.4937 59.7336C35.3029 59.7173 35.1098 59.6987 34.9214 59.6778C34.8051 59.6638 34.6911 59.6475 34.5771 59.6336C34.391 59.6103 34.2049 59.587 34.0212 59.5591C33.9072 59.5405 33.7932 59.5196 33.6815 59.501C33.4978 59.4707 33.314 59.4405 33.1325 59.4056C33.0209 59.3847 32.9115 59.3591 32.8022 59.3381C32.6184 59.3009 32.4347 59.2614 32.2532 59.2195C32.1462 59.1939 32.0415 59.1683 31.9345 59.1427C31.7508 59.0962 31.567 59.052 31.3832 59.0008C31.2832 58.9729 31.1808 58.9427 31.0808 58.9148C30.8947 58.8613 30.7086 58.8078 30.5248 58.7496C30.4295 58.7194 30.3364 58.6891 30.241 58.6566C30.0526 58.5961 29.8642 58.5333 29.6781 58.4658C29.5897 58.4333 29.5013 58.4007 29.4129 58.3681C29.2221 58.2983 29.0337 58.2262 28.8453 58.1518C28.7639 58.1192 28.6824 58.0867 28.5987 58.0518C28.4056 57.9727 28.2149 57.8913 28.0241 57.8075C27.9497 57.7749 27.8752 57.7401 27.7985 57.7075C27.6031 57.6191 27.41 57.5284 27.2169 57.4353C27.1495 57.4028 27.0797 57.3679 27.0122 57.3353C26.8145 57.2376 26.6191 57.1353 26.4237 57.0329C26.3632 57.0003 26.3027 56.9678 26.2422 56.9352C26.0422 56.8259 25.8444 56.7142 25.6467 56.6002C25.5932 56.57 25.5397 56.5374 25.4885 56.5072C25.2861 56.3886 25.0861 56.2653 24.886 56.1397C24.8395 56.1117 24.7953 56.0815 24.7488 56.0536C24.5441 55.9233 24.3417 55.7884 24.1416 55.6512C24.1184 55.6349 24.0928 55.6186 24.0695 55.6023C24.0649 55.6 24.0625 55.5977 24.0602 55.593C23.2623 55.0417 22.4993 54.4485 21.7735 53.8088C21.7061 53.9461 21.6502 54.088 21.6037 54.2369C21.2199 55.4744 21.6758 56.798 22.7412 57.5307C27.1518 60.571 32.3137 62.1761 37.6734 62.1761V59.8336C37.364 59.8336 37.0546 59.8266 36.7498 59.815L36.7475 59.8173Z" fill="#1C8FC9"/>
</g>
<defs>
<clipPath id="clip0_113_100">
<rect width="74" height="74" fill="white"/>
</clipPath>
</defs>
</svg>
