<svg width="100" height="101" viewBox="0 0 100 101" fill="none" xmlns="http://www.w3.org/2000/svg">
<rect y="0.5" width="100" height="100" rx="50" fill="#00A0D2" fill-opacity="0.1"/>
<path d="M56.4432 20.1818L55.3182 69.4773H44.3409L43.25 20.1818H56.4432ZM49.8295 90.75C47.7614 90.75 45.9886 90.0227 44.5114 88.5682C43.0568 87.1136 42.3295 85.3409 42.3295 83.25C42.3295 81.2045 43.0568 79.4545 44.5114 78C45.9886 76.5455 47.7614 75.8182 49.8295 75.8182C51.8523 75.8182 53.6023 76.5455 55.0795 78C56.5795 79.4545 57.3295 81.2045 57.3295 83.25C57.3295 84.6364 56.9773 85.8977 56.2727 87.0341C55.5909 88.1705 54.6818 89.0795 53.5455 89.7614C52.4318 90.4205 51.1932 90.75 49.8295 90.75Z" fill="#404040"/>
<path d="M56.4432 20.1818L55.3182 69.4773H44.3409L43.25 20.1818H56.4432ZM49.8295 90.75C47.7614 90.75 45.9886 90.0227 44.5114 88.5682C43.0568 87.1136 42.3295 85.3409 42.3295 83.25C42.3295 81.2045 43.0568 79.4545 44.5114 78C45.9886 76.5455 47.7614 75.8182 49.8295 75.8182C51.8523 75.8182 53.6023 76.5455 55.0795 78C56.5795 79.4545 57.3295 81.2045 57.3295 83.25C57.3295 84.6364 56.9773 85.8977 56.2727 87.0341C55.5909 88.1705 54.6818 89.0795 53.5455 89.7614C52.4318 90.4205 51.1932 90.75 49.8295 90.75Z" fill="black" fill-opacity="0.2"/>
</svg>
