<svg width="74" height="74" viewBox="0 0 74 74" fill="none" xmlns="http://www.w3.org/2000/svg">
<path d="M74 37C74 43.9925 72.0599 50.5313 68.6869 56.1095C65.2673 61.7737 60.3682 66.4446 54.5271 69.5919C49.3116 72.4043 43.3425 74 37.0012 74C30.6598 74 24.6884 72.4043 19.4706 69.5919C13.6318 66.4446 8.7327 61.7737 5.3108 56.1095C1.94008 50.5313 0 43.9925 0 37C0 16.567 16.5652 0 37.0012 0C57.4372 0 74 16.567 74 37Z" fill="#C6E4F6"/>
<path d="M32.9279 28.242C32.9279 23.3922 28.9962 19.4607 24.1463 19.4607C19.2964 19.4607 15.3647 23.3922 15.3647 28.242V53.5972C15.3647 58.447 19.2964 62.3785 24.1463 62.3785C28.9962 62.3785 32.9279 58.447 32.9279 53.5972V28.242Z" fill="#EC4A0A"/>
<path d="M58.6329 28.242C58.6329 23.3922 54.7013 19.4607 49.8514 19.4607C45.0015 19.4607 41.0698 23.3922 41.0698 28.242V53.5972C41.0698 58.447 45.0015 62.3785 49.8514 62.3785C54.7013 62.3785 58.6329 58.447 58.6329 53.5972V28.242Z" fill="#FB6514"/>
<path d="M24.1465 33.7364C27.2453 33.7364 29.7574 31.2244 29.7574 28.1257C29.7574 25.027 27.2453 22.515 24.1465 22.515C21.0477 22.515 18.5356 25.027 18.5356 28.1257C18.5356 31.2244 21.0477 33.7364 24.1465 33.7364Z" fill="white"/>
<path d="M49.8511 33.7364C52.9499 33.7364 55.462 31.2244 55.462 28.1257C55.462 25.027 52.9499 22.515 49.8511 22.515C46.7523 22.515 44.2402 25.027 44.2402 28.1257C44.2402 31.2244 46.7523 33.7364 49.8511 33.7364Z" fill="white"/>
<path d="M37.001 45.4185V74.0001C43.3423 74.0001 49.3114 72.4043 54.5269 69.592C60.3681 66.4447 65.2671 61.7737 68.6867 56.1095C59.8935 49.4032 48.9136 45.4185 37.001 45.4185Z" fill="#FB6514"/>
<path d="M5.31092 56.1095C8.73282 61.7737 13.6319 66.4447 19.4707 69.592C24.6885 72.4043 30.66 74.0001 36.999 74.0001V45.4185C25.0863 45.4185 14.1018 49.4032 5.30859 56.1095H5.31092Z" fill="#EC4A0A"/>
<path d="M24.1465 31.4684C25.9927 31.4684 27.4893 29.9718 27.4893 28.1257C27.4893 26.2795 25.9927 24.783 24.1465 24.783C22.3003 24.783 20.8037 26.2795 20.8037 28.1257C20.8037 29.9718 22.3003 31.4684 24.1465 31.4684Z" fill="#263238"/>
<path d="M49.5 31.4684C51.3462 31.4684 52.8428 29.9718 52.8428 28.1257C52.8428 26.2795 51.3462 24.783 49.5 24.783C47.6539 24.783 46.1572 26.2795 46.1572 28.1257C46.1572 29.9718 47.6539 31.4684 49.5 31.4684Z" fill="#263238"/>
</svg>
